<svg width="352" height="242" viewBox="0 0 352 242" fill="none" xmlns="http://www.w3.org/2000/svg">
<g clip-path="url(#clip0_510_1177)">
<path d="M87 108.5H61V116.4H70.1V144.8H77.9V116.4H87V108.5ZM127.7 137.6C121.7 137.6 116.9 132.7 116.9 126.8C116.9 120.8 121.8 116 127.7 116C130.6 116 133.3 117.1 135.3 119.2L141 113.5C137.4 109.9 132.7 108 127.7 108C117.3 108 108.8 116.4 108.8 126.8C108.8 137.2 117.2 145.7 127.6 145.7M127.7 145.7C132.7 145.7 137.5 143.7 141 140.2L135.3 134.5C133.3 136.5 130.5 137.7 127.7 137.7M278.2 133.6C275.5 132.6 270.5 130.9 270.5 125C270.5 119.9 275.9 116.4 281.2 116.4C285.7 116.4 288.3 117.9 290.8 120.3L286.5 125.7C285.3 124.3 283.2 123.6 281.7 123.6C279.7 123.6 278.1 124.1 278.1 125.6C278.1 126.7 279.6 127.1 280.8 127.5L283.2 128.4C286.7 129.7 290.9 131.1 290.9 137C290.9 142.4 285.6 146.2 280.2 146.2C275.7 146.2 272.2 145 269.5 142L268.7 141L273.5 135.9L273.8 136.2C275 137.6 277.6 139 279.7 139C281.8 139 283.3 138.4 283.3 136.7C283.3 135.4 281.8 135 280.6 134.5L278.2 133.6ZM231.3 121C228.6 118.3 224.9 116.8 221.1 116.8C213.1 116.8 206.6 123.3 206.6 131.3C206.6 139.3 213.1 145.8 221.1 145.8C229.1 145.8 235.6 139.3 235.6 131.3C235.6 127.3 234 123.7 231.3 121ZM221.1 137.9C217.4 137.9 214.4 134.9 214.4 131.2C214.4 127.5 217.4 124.5 221.1 124.5C222.9 124.5 224.5 125.2 225.8 126.5C227.1 127.8 227.8 129.4 227.8 131.2C227.7 134.9 224.7 137.9 221.1 137.9ZM166.5 124.1L163.3 122.3C161.1 121.1 158.9 120 158.9 118C158.9 116 160.9 115.4 163 115.4H163.2C164.6 115.4 166 115.9 167.9 117.1L173.4 111.6C170.8 109 166.9 107.8 163.2 107.8H162.4C157.1 107.8 150.6 112.1 150.6 118C150.6 123.2 154 126.1 157.4 127.9L160.6 129.7C163.3 131.2 165.3 132.4 165.3 134.4C165.3 136.7 163.2 138 161.2 138C158.8 138 156.5 136.5 155 134.4L150 140.6C152.9 144.4 157.3 145.6 161.2 145.6C167.6 145.6 173.6 140.8 173.6 134.4C173.6 129.8 170.7 126.4 166.5 124.1Z" fill="#0A1159"/>
<path d="M200.2 121C197.5 118.3 193.8 116.8 189.9 116.8C186.7 116.8 183.7 117.9 181.3 119.7C180.7 118.6 179.9 117.6 179 116.8L173.5 122.3C174.8 123.6 175.4 125.2 175.4 127V156.2H183.2V144.2C185.2 145.2 187.5 145.8 189.8 145.8C197.8 145.8 204.3 139.3 204.3 131.3C204.5 127.3 203 123.7 200.2 121ZM190 137.9C186.3 137.9 183.4 134.9 183.4 131.2C183.4 127.5 186.4 124.6 190.1 124.6C191.9 124.6 193.5 125.3 194.8 126.6C196.1 127.9 196.8 129.5 196.8 131.3C196.6 134.9 193.6 137.9 190 137.9ZM244.2 120.4C243.5 119 242.6 117.7 241.5 116.6L236 122.1C237.3 123.4 237.9 125 237.9 126.8V144.7H245.7V132.4C245.7 130.6 246.4 128.9 247.7 127.7C249 126.4 250.6 125.7 252.4 125.7V117.9C249.4 117.9 246.6 118.8 244.2 120.4ZM268.3 125.7V117.9H262.6V109.5H254.8V135.4C254.8 139.3 256.3 142.9 259 145.7L264.5 140.2C263.2 138.9 262.6 137.3 262.6 135.5V125.8L268.3 125.7ZM106.4 123.2H98.7004V133C98.7004 135.8 97.0004 137.6 94.4004 137.6C91.8004 137.6 90.1004 135.8 90.1004 133V123.3H82.4004V133C82.4004 136.5 83.6004 139.4 85.9004 141.6C88.1004 143.7 91.1004 144.8 94.5004 144.8C96.0004 144.8 97.5004 144.6 98.8004 144.1V144.4C98.8004 147.2 97.1004 149.2 94.5004 149.2H91.3004L84.5004 156.1H95.6004C98.6004 155.9 101.2 154.8 103.2 152.9C105.3 150.9 106.5 148.3 106.7 145.2V123.2H106.4Z" fill="#0A1159"/>
<mask id="mask0_510_1177" style="mask-type:alpha" maskUnits="userSpaceOnUse" x="56" y="102" width="240" height="60">
<path d="M87 108.5H61V116.4H70.1V144.8H77.9V116.4H87V108.5ZM127.7 137.6C121.7 137.6 116.9 132.7 116.9 126.8C116.9 120.8 121.8 116 127.7 116C130.6 116 133.3 117.1 135.3 119.2L141 113.5C137.4 109.9 132.7 108 127.7 108C117.3 108 108.8 116.4 108.8 126.8C108.8 137.2 117.2 145.7 127.6 145.7M127.7 145.7C132.7 145.7 137.5 143.7 141 140.2L135.3 134.5C133.3 136.5 130.5 137.7 127.7 137.7M278.2 133.6C275.5 132.6 270.5 130.9 270.5 125C270.5 119.9 275.9 116.4 281.2 116.4C285.7 116.4 288.3 117.9 290.8 120.3L286.5 125.7C285.3 124.3 283.2 123.6 281.7 123.6C279.7 123.6 278.1 124.1 278.1 125.6C278.1 126.7 279.6 127.1 280.8 127.5L283.2 128.4C286.7 129.7 290.9 131.1 290.9 137C290.9 142.4 285.6 146.2 280.2 146.2C275.7 146.2 272.2 145 269.5 142L268.7 141L273.5 135.9L273.8 136.2C275 137.6 277.6 139 279.7 139C281.8 139 283.3 138.4 283.3 136.7C283.3 135.4 281.8 135 280.6 134.5L278.2 133.6ZM231.3 121C228.6 118.3 224.9 116.8 221.1 116.8C213.1 116.8 206.6 123.3 206.6 131.3C206.6 139.3 213.1 145.8 221.1 145.8C229.1 145.8 235.6 139.3 235.6 131.3C235.6 127.3 234 123.7 231.3 121ZM221.1 137.9C217.4 137.9 214.4 134.9 214.4 131.2C214.4 127.5 217.4 124.5 221.1 124.5C222.9 124.5 224.5 125.2 225.8 126.5C227.1 127.8 227.8 129.4 227.8 131.2C227.7 134.9 224.7 137.9 221.1 137.9ZM166.5 124.1L163.3 122.3C161.1 121.1 158.9 120 158.9 118C158.9 116 160.9 115.4 163 115.4H163.2C164.6 115.4 166 115.9 167.9 117.1L173.4 111.6C170.8 109 166.9 107.8 163.2 107.8H162.4C157.1 107.8 150.6 112.1 150.6 118C150.6 123.2 154 126.1 157.4 127.9L160.6 129.7C163.3 131.2 165.3 132.4 165.3 134.4C165.3 136.7 163.2 138 161.2 138C158.8 138 156.5 136.5 155 134.4L150 140.6C152.9 144.4 157.3 145.6 161.2 145.6C167.6 145.6 173.6 140.8 173.6 134.4C173.6 129.8 170.7 126.4 166.5 124.1Z" fill="#0A1159"/>
<path d="M200.2 121C197.5 118.3 193.8 116.8 189.9 116.8C186.7 116.8 183.7 117.9 181.3 119.7C180.7 118.6 179.9 117.6 179 116.8L173.5 122.3C174.8 123.6 175.4 125.2 175.4 127V156.2H183.2V144.2C185.2 145.2 187.5 145.8 189.8 145.8C197.8 145.8 204.3 139.3 204.3 131.3C204.5 127.3 203 123.7 200.2 121ZM190 137.9C186.3 137.9 183.4 134.9 183.4 131.2C183.4 127.5 186.4 124.6 190.1 124.6C191.9 124.6 193.5 125.3 194.8 126.6C196.1 127.9 196.8 129.5 196.8 131.3C196.6 134.9 193.6 137.9 190 137.9ZM244.2 120.4C243.5 119 242.6 117.7 241.5 116.6L236 122.1C237.3 123.4 237.9 125 237.9 126.8V144.7H245.7V132.4C245.7 130.6 246.4 128.9 247.7 127.7C249 126.4 250.6 125.7 252.4 125.7V117.9C249.4 117.9 246.6 118.8 244.2 120.4ZM268.3 125.7V117.9H262.6V109.5H254.8V135.4C254.8 139.3 256.3 142.9 259 145.7L264.5 140.2C263.2 138.9 262.6 137.3 262.6 135.5V125.8L268.3 125.7ZM106.4 123.2H98.7004V133C98.7004 135.8 97.0004 137.6 94.4004 137.6C91.8004 137.6 90.1004 135.8 90.1004 133V123.3H82.4004V133C82.4004 136.5 83.6004 139.4 85.9004 141.6C88.1004 143.7 91.1004 144.8 94.5004 144.8C96.0004 144.8 97.5004 144.6 98.8004 144.1V144.4C98.8004 147.2 97.1004 149.2 94.5004 149.2H91.3004L84.5004 156.1H95.6004C98.6004 155.9 101.2 154.8 103.2 152.9C105.3 150.9 106.5 148.3 106.7 145.2V123.2H106.4Z" fill="#0A1159"/>
</mask>
<g mask="url(#mask0_510_1177)">
<path d="M291 136.615L69 128V162H291V136.615Z" fill="#FF4C22"/>
</g>
</g>
<defs>
<clipPath id="clip0_510_1177">
<rect width="352" height="242" fill="white"/>
</clipPath>
</defs>
</svg>
